<?xml version="1.0" encoding="UTF-8" standalone="no"?>
<!DOCTYPE svg PUBLIC "-//W3C//DTD SVG 1.1//EN"
 "http://www.w3.org/Graphics/SVG/1.1/DTD/svg11.dtd">
<!-- Generated by graphviz version 2.50.0 (20211204.2007)
 -->
<!-- Pages: 1 -->
<svg width="816pt" height="502pt"
 viewBox="0.00 0.00 816.48 502.00" xmlns="http://www.w3.org/2000/svg" xmlns:xlink="http://www.w3.org/1999/xlink">
<g id="graph0" class="graph" transform="scale(1 1) rotate(0) translate(4 498)">
<polygon fill="white" stroke="transparent" points="-4,4 -4,-498 812.48,-498 812.48,4 -4,4"/>
<!-- 0 -->
<g id="node1" class="node">
<title>0</title>
<ellipse fill="none" stroke="black" cx="397.24" cy="-476" rx="83.39" ry="18"/>
<text text-anchor="middle" x="397.24" y="-472.3" font-family="Times New Roman,serif" font-size="14.00">Balance, value&gt;63.5</text>
</g>
<!-- 1 -->
<g id="node2" class="node">
<title>1</title>
<ellipse fill="none" stroke="black" cx="282.24" cy="-389" rx="106.68" ry="18"/>
<text text-anchor="middle" x="282.24" y="-385.3" font-family="Times New Roman,serif" font-size="14.00">Sliding Tackle, value&gt;49.5</text>
</g>
<!-- 0&#45;&gt;1 -->
<g id="edge1" class="edge">
<title>0&#45;&gt;1</title>
<path fill="none" stroke="black" d="M375.07,-458.61C357.44,-445.58 332.59,-427.21 313.03,-412.76"/>
<polygon fill="black" stroke="black" points="314.86,-409.76 304.74,-406.63 310.7,-415.39 314.86,-409.76"/>
<text text-anchor="middle" x="356.24" y="-428.8" font-family="Times New Roman,serif" font-size="14.00">No</text>
</g>
<!-- 2 -->
<g id="node3" class="node">
<title>2</title>
<ellipse fill="none" stroke="black" cx="513.24" cy="-389" rx="106.68" ry="18"/>
<text text-anchor="middle" x="513.24" y="-385.3" font-family="Times New Roman,serif" font-size="14.00">Sliding Tackle, value&gt;49.5</text>
</g>
<!-- 0&#45;&gt;2 -->
<g id="edge2" class="edge">
<title>0&#45;&gt;2</title>
<path fill="none" stroke="black" d="M419.61,-458.61C437.47,-445.53 462.68,-427.05 482.45,-412.56"/>
<polygon fill="black" stroke="black" points="484.55,-415.36 490.55,-406.63 480.41,-409.72 484.55,-415.36"/>
<text text-anchor="middle" x="472.24" y="-428.8" font-family="Times New Roman,serif" font-size="14.00">Yes</text>
</g>
<!-- 3 -->
<g id="node4" class="node">
<title>3</title>
<ellipse fill="none" stroke="black" cx="94.24" cy="-302" rx="94.48" ry="18"/>
<text text-anchor="middle" x="94.24" y="-298.3" font-family="Times New Roman,serif" font-size="14.00">Attacking, value&gt;141.5</text>
</g>
<!-- 1&#45;&gt;3 -->
<g id="edge3" class="edge">
<title>1&#45;&gt;3</title>
<path fill="none" stroke="black" d="M246.88,-372.01C216.19,-358.14 171.62,-337.98 138.56,-323.04"/>
<polygon fill="black" stroke="black" points="139.68,-319.7 129.13,-318.77 136.8,-326.08 139.68,-319.7"/>
<text text-anchor="middle" x="209.24" y="-341.8" font-family="Times New Roman,serif" font-size="14.00">No</text>
</g>
<!-- 4 -->
<g id="node5" class="node">
<title>4</title>
<ellipse fill="none" stroke="black" cx="300.24" cy="-302" rx="94.48" ry="18"/>
<text text-anchor="middle" x="300.24" y="-298.3" font-family="Times New Roman,serif" font-size="14.00">Attacking, value&gt;141.5</text>
</g>
<!-- 1&#45;&gt;4 -->
<g id="edge4" class="edge">
<title>1&#45;&gt;4</title>
<path fill="none" stroke="black" d="M285.88,-370.8C288.35,-359.16 291.66,-343.55 294.47,-330.24"/>
<polygon fill="black" stroke="black" points="297.96,-330.68 296.6,-320.18 291.11,-329.23 297.96,-330.68"/>
<text text-anchor="middle" x="304.24" y="-341.8" font-family="Times New Roman,serif" font-size="14.00">Yes</text>
</g>
<!-- 5 -->
<g id="node6" class="node">
<title>5</title>
<ellipse fill="none" stroke="black" cx="508.24" cy="-302" rx="94.48" ry="18"/>
<text text-anchor="middle" x="508.24" y="-298.3" font-family="Times New Roman,serif" font-size="14.00">Attacking, value&gt;141.5</text>
</g>
<!-- 2&#45;&gt;5 -->
<g id="edge5" class="edge">
<title>2&#45;&gt;5</title>
<path fill="none" stroke="black" d="M512.23,-370.8C511.55,-359.16 510.63,-343.55 509.84,-330.24"/>
<polygon fill="black" stroke="black" points="513.33,-329.95 509.25,-320.18 506.35,-330.36 513.33,-329.95"/>
<text text-anchor="middle" x="519.24" y="-341.8" font-family="Times New Roman,serif" font-size="14.00">No</text>
</g>
<!-- 6 -->
<g id="node7" class="node">
<title>6</title>
<ellipse fill="none" stroke="black" cx="714.24" cy="-302" rx="94.48" ry="18"/>
<text text-anchor="middle" x="714.24" y="-298.3" font-family="Times New Roman,serif" font-size="14.00">Attacking, value&gt;141.5</text>
</g>
<!-- 2&#45;&gt;6 -->
<g id="edge6" class="edge">
<title>2&#45;&gt;6</title>
<path fill="none" stroke="black" d="M551.05,-372.01C584.1,-358.03 632.22,-337.68 667.65,-322.7"/>
<polygon fill="black" stroke="black" points="669.44,-325.75 677.28,-318.63 666.71,-319.3 669.44,-325.75"/>
<text text-anchor="middle" x="636.24" y="-341.8" font-family="Times New Roman,serif" font-size="14.00">Yes</text>
</g>
<!-- 7 -->
<g id="node8" class="node">
<title>7</title>
<polygon fill="none" stroke="red" points="83.74,-233 0.74,-233 0.74,0 83.74,0 83.74,-233"/>
<text text-anchor="middle" x="42.24" y="-217.8" font-family="Times New Roman,serif" font-size="14.00">val = &#45;0.061</text>
<text text-anchor="middle" x="42.24" y="-202.8" font-family="Times New Roman,serif" font-size="14.00">val = &#45;0.061</text>
<text text-anchor="middle" x="42.24" y="-187.8" font-family="Times New Roman,serif" font-size="14.00">val = &#45;0.061</text>
<text text-anchor="middle" x="42.24" y="-172.8" font-family="Times New Roman,serif" font-size="14.00">val = &#45;0.061</text>
<text text-anchor="middle" x="42.24" y="-157.8" font-family="Times New Roman,serif" font-size="14.00">val = &#45;0.061</text>
<text text-anchor="middle" x="42.24" y="-142.8" font-family="Times New Roman,serif" font-size="14.00">val = 0.857</text>
<text text-anchor="middle" x="42.24" y="-127.8" font-family="Times New Roman,serif" font-size="14.00">val = &#45;0.061</text>
<text text-anchor="middle" x="42.24" y="-112.8" font-family="Times New Roman,serif" font-size="14.00">val = &#45;0.061</text>
<text text-anchor="middle" x="42.24" y="-97.8" font-family="Times New Roman,serif" font-size="14.00">val = &#45;0.061</text>
<text text-anchor="middle" x="42.24" y="-82.8" font-family="Times New Roman,serif" font-size="14.00">val = &#45;0.061</text>
<text text-anchor="middle" x="42.24" y="-67.8" font-family="Times New Roman,serif" font-size="14.00">val = &#45;0.061</text>
<text text-anchor="middle" x="42.24" y="-52.8" font-family="Times New Roman,serif" font-size="14.00">val = &#45;0.061</text>
<text text-anchor="middle" x="42.24" y="-37.8" font-family="Times New Roman,serif" font-size="14.00">val = &#45;0.061</text>
<text text-anchor="middle" x="42.24" y="-22.8" font-family="Times New Roman,serif" font-size="14.00">val = &#45;0.061</text>
<text text-anchor="middle" x="42.24" y="-7.8" font-family="Times New Roman,serif" font-size="14.00">val = &#45;0.061</text>
</g>
<!-- 3&#45;&gt;7 -->
<g id="edge7" class="edge">
<title>3&#45;&gt;7</title>
<path fill="none" stroke="black" d="M88.15,-283.99C86.18,-278.29 84.04,-271.9 82.24,-266 79.96,-258.55 77.69,-250.87 75.44,-243.11"/>
<polygon fill="black" stroke="black" points="78.73,-241.89 72.61,-233.24 72,-243.82 78.73,-241.89"/>
<text text-anchor="middle" x="91.24" y="-254.8" font-family="Times New Roman,serif" font-size="14.00">No</text>
</g>
<!-- 8 -->
<g id="node9" class="node">
<title>8</title>
<polygon fill="none" stroke="red" points="184.74,-233 101.74,-233 101.74,0 184.74,0 184.74,-233"/>
<text text-anchor="middle" x="143.24" y="-217.8" font-family="Times New Roman,serif" font-size="14.00">val = 0.038</text>
<text text-anchor="middle" x="143.24" y="-202.8" font-family="Times New Roman,serif" font-size="14.00">val = &#45;0.051</text>
<text text-anchor="middle" x="143.24" y="-187.8" font-family="Times New Roman,serif" font-size="14.00">val = &#45;0.058</text>
<text text-anchor="middle" x="143.24" y="-172.8" font-family="Times New Roman,serif" font-size="14.00">val = &#45;0.057</text>
<text text-anchor="middle" x="143.24" y="-157.8" font-family="Times New Roman,serif" font-size="14.00">val = &#45;0.043</text>
<text text-anchor="middle" x="143.24" y="-142.8" font-family="Times New Roman,serif" font-size="14.00">val = &#45;0.060</text>
<text text-anchor="middle" x="143.24" y="-127.8" font-family="Times New Roman,serif" font-size="14.00">val = &#45;0.058</text>
<text text-anchor="middle" x="143.24" y="-112.8" font-family="Times New Roman,serif" font-size="14.00">val = &#45;0.018</text>
<text text-anchor="middle" x="143.24" y="-97.8" font-family="Times New Roman,serif" font-size="14.00">val = &#45;0.056</text>
<text text-anchor="middle" x="143.24" y="-82.8" font-family="Times New Roman,serif" font-size="14.00">val = &#45;0.061</text>
<text text-anchor="middle" x="143.24" y="-67.8" font-family="Times New Roman,serif" font-size="14.00">val = &#45;0.060</text>
<text text-anchor="middle" x="143.24" y="-52.8" font-family="Times New Roman,serif" font-size="14.00">val = &#45;0.003</text>
<text text-anchor="middle" x="143.24" y="-37.8" font-family="Times New Roman,serif" font-size="14.00">val = &#45;0.051</text>
<text text-anchor="middle" x="143.24" y="-22.8" font-family="Times New Roman,serif" font-size="14.00">val = &#45;0.061</text>
<text text-anchor="middle" x="143.24" y="-7.8" font-family="Times New Roman,serif" font-size="14.00">val = 0.596</text>
</g>
<!-- 3&#45;&gt;8 -->
<g id="edge8" class="edge">
<title>3&#45;&gt;8</title>
<path fill="none" stroke="black" d="M98.85,-283.74C101.63,-273.32 105.45,-259.01 109.7,-243.12"/>
<polygon fill="black" stroke="black" points="113.19,-243.61 112.39,-233.04 106.43,-241.8 113.19,-243.61"/>
<text text-anchor="middle" x="119.24" y="-254.8" font-family="Times New Roman,serif" font-size="14.00">Yes</text>
</g>
<!-- 9 -->
<g id="node10" class="node">
<title>9</title>
<polygon fill="none" stroke="red" points="294.74,-233 211.74,-233 211.74,0 294.74,0 294.74,-233"/>
<text text-anchor="middle" x="253.24" y="-217.8" font-family="Times New Roman,serif" font-size="14.00">val = &#45;0.003</text>
<text text-anchor="middle" x="253.24" y="-202.8" font-family="Times New Roman,serif" font-size="14.00">val = 0.038</text>
<text text-anchor="middle" x="253.24" y="-187.8" font-family="Times New Roman,serif" font-size="14.00">val = &#45;0.003</text>
<text text-anchor="middle" x="253.24" y="-172.8" font-family="Times New Roman,serif" font-size="14.00">val = &#45;0.003</text>
<text text-anchor="middle" x="253.24" y="-157.8" font-family="Times New Roman,serif" font-size="14.00">val = &#45;0.003</text>
<text text-anchor="middle" x="253.24" y="-142.8" font-family="Times New Roman,serif" font-size="14.00">val = &#45;0.003</text>
<text text-anchor="middle" x="253.24" y="-127.8" font-family="Times New Roman,serif" font-size="14.00">val = &#45;0.003</text>
<text text-anchor="middle" x="253.24" y="-112.8" font-family="Times New Roman,serif" font-size="14.00">val = &#45;0.003</text>
<text text-anchor="middle" x="253.24" y="-97.8" font-family="Times New Roman,serif" font-size="14.00">val = &#45;0.003</text>
<text text-anchor="middle" x="253.24" y="-82.8" font-family="Times New Roman,serif" font-size="14.00">val = &#45;0.003</text>
<text text-anchor="middle" x="253.24" y="-67.8" font-family="Times New Roman,serif" font-size="14.00">val = &#45;0.003</text>
<text text-anchor="middle" x="253.24" y="-52.8" font-family="Times New Roman,serif" font-size="14.00">val = &#45;0.003</text>
<text text-anchor="middle" x="253.24" y="-37.8" font-family="Times New Roman,serif" font-size="14.00">val = &#45;0.003</text>
<text text-anchor="middle" x="253.24" y="-22.8" font-family="Times New Roman,serif" font-size="14.00">val = &#45;0.003</text>
<text text-anchor="middle" x="253.24" y="-7.8" font-family="Times New Roman,serif" font-size="14.00">val = &#45;0.003</text>
</g>
<!-- 4&#45;&gt;9 -->
<g id="edge9" class="edge">
<title>4&#45;&gt;9</title>
<path fill="none" stroke="black" d="M295.82,-283.74C293.15,-273.32 289.49,-259.01 285.42,-243.12"/>
<polygon fill="black" stroke="black" points="288.71,-241.86 282.84,-233.04 281.93,-243.6 288.71,-241.86"/>
<text text-anchor="middle" x="301.24" y="-254.8" font-family="Times New Roman,serif" font-size="14.00">No</text>
</g>
<!-- 10 -->
<g id="node11" class="node">
<title>10</title>
<polygon fill="none" stroke="red" points="395.74,-233 312.74,-233 312.74,0 395.74,0 395.74,-233"/>
<text text-anchor="middle" x="354.24" y="-217.8" font-family="Times New Roman,serif" font-size="14.00">val = &#45;0.042</text>
<text text-anchor="middle" x="354.24" y="-202.8" font-family="Times New Roman,serif" font-size="14.00">val = 0.572</text>
<text text-anchor="middle" x="354.24" y="-187.8" font-family="Times New Roman,serif" font-size="14.00">val = 0.040</text>
<text text-anchor="middle" x="354.24" y="-172.8" font-family="Times New Roman,serif" font-size="14.00">val = &#45;0.063</text>
<text text-anchor="middle" x="354.24" y="-157.8" font-family="Times New Roman,serif" font-size="14.00">val = &#45;0.016</text>
<text text-anchor="middle" x="354.24" y="-142.8" font-family="Times New Roman,serif" font-size="14.00">val = &#45;0.063</text>
<text text-anchor="middle" x="354.24" y="-127.8" font-family="Times New Roman,serif" font-size="14.00">val = &#45;0.008</text>
<text text-anchor="middle" x="354.24" y="-112.8" font-family="Times New Roman,serif" font-size="14.00">val = &#45;0.056</text>
<text text-anchor="middle" x="354.24" y="-97.8" font-family="Times New Roman,serif" font-size="14.00">val = &#45;0.063</text>
<text text-anchor="middle" x="354.24" y="-82.8" font-family="Times New Roman,serif" font-size="14.00">val = &#45;0.051</text>
<text text-anchor="middle" x="354.24" y="-67.8" font-family="Times New Roman,serif" font-size="14.00">val = &#45;0.022</text>
<text text-anchor="middle" x="354.24" y="-52.8" font-family="Times New Roman,serif" font-size="14.00">val = &#45;0.054</text>
<text text-anchor="middle" x="354.24" y="-37.8" font-family="Times New Roman,serif" font-size="14.00">val = &#45;0.062</text>
<text text-anchor="middle" x="354.24" y="-22.8" font-family="Times New Roman,serif" font-size="14.00">val = &#45;0.055</text>
<text text-anchor="middle" x="354.24" y="-7.8" font-family="Times New Roman,serif" font-size="14.00">val = &#45;0.057</text>
</g>
<!-- 4&#45;&gt;10 -->
<g id="edge10" class="edge">
<title>4&#45;&gt;10</title>
<path fill="none" stroke="black" d="M307.63,-283.7C309.89,-278.11 312.3,-271.84 314.24,-266 316.76,-258.44 319.24,-250.62 321.65,-242.71"/>
<polygon fill="black" stroke="black" points="325.04,-243.6 324.55,-233.02 318.33,-241.59 325.04,-243.6"/>
<text text-anchor="middle" x="329.24" y="-254.8" font-family="Times New Roman,serif" font-size="14.00">Yes</text>
</g>
<!-- 11 -->
<g id="node12" class="node">
<title>11</title>
<polygon fill="none" stroke="red" points="500.74,-233 417.74,-233 417.74,0 500.74,0 500.74,-233"/>
<text text-anchor="middle" x="459.24" y="-217.8" font-family="Times New Roman,serif" font-size="14.00">val = &#45;0.024</text>
<text text-anchor="middle" x="459.24" y="-202.8" font-family="Times New Roman,serif" font-size="14.00">val = &#45;0.024</text>
<text text-anchor="middle" x="459.24" y="-187.8" font-family="Times New Roman,serif" font-size="14.00">val = &#45;0.024</text>
<text text-anchor="middle" x="459.24" y="-172.8" font-family="Times New Roman,serif" font-size="14.00">val = &#45;0.024</text>
<text text-anchor="middle" x="459.24" y="-157.8" font-family="Times New Roman,serif" font-size="14.00">val = &#45;0.011</text>
<text text-anchor="middle" x="459.24" y="-142.8" font-family="Times New Roman,serif" font-size="14.00">val = 0.329</text>
<text text-anchor="middle" x="459.24" y="-127.8" font-family="Times New Roman,serif" font-size="14.00">val = &#45;0.024</text>
<text text-anchor="middle" x="459.24" y="-112.8" font-family="Times New Roman,serif" font-size="14.00">val = &#45;0.024</text>
<text text-anchor="middle" x="459.24" y="-97.8" font-family="Times New Roman,serif" font-size="14.00">val = &#45;0.024</text>
<text text-anchor="middle" x="459.24" y="-82.8" font-family="Times New Roman,serif" font-size="14.00">val = &#45;0.024</text>
<text text-anchor="middle" x="459.24" y="-67.8" font-family="Times New Roman,serif" font-size="14.00">val = &#45;0.024</text>
<text text-anchor="middle" x="459.24" y="-52.8" font-family="Times New Roman,serif" font-size="14.00">val = &#45;0.024</text>
<text text-anchor="middle" x="459.24" y="-37.8" font-family="Times New Roman,serif" font-size="14.00">val = &#45;0.024</text>
<text text-anchor="middle" x="459.24" y="-22.8" font-family="Times New Roman,serif" font-size="14.00">val = &#45;0.024</text>
<text text-anchor="middle" x="459.24" y="-7.8" font-family="Times New Roman,serif" font-size="14.00">val = &#45;0.024</text>
</g>
<!-- 5&#45;&gt;11 -->
<g id="edge11" class="edge">
<title>5&#45;&gt;11</title>
<path fill="none" stroke="black" d="M503.63,-283.74C500.85,-273.32 497.03,-259.01 492.79,-243.12"/>
<polygon fill="black" stroke="black" points="496.06,-241.8 490.1,-233.04 489.29,-243.61 496.06,-241.8"/>
<text text-anchor="middle" x="507.24" y="-254.8" font-family="Times New Roman,serif" font-size="14.00">No</text>
</g>
<!-- 12 -->
<g id="node13" class="node">
<title>12</title>
<polygon fill="none" stroke="red" points="601.74,-233 518.74,-233 518.74,0 601.74,0 601.74,-233"/>
<text text-anchor="middle" x="560.24" y="-217.8" font-family="Times New Roman,serif" font-size="14.00">val = 0.200</text>
<text text-anchor="middle" x="560.24" y="-202.8" font-family="Times New Roman,serif" font-size="14.00">val = &#45;0.060</text>
<text text-anchor="middle" x="560.24" y="-187.8" font-family="Times New Roman,serif" font-size="14.00">val = &#45;0.061</text>
<text text-anchor="middle" x="560.24" y="-172.8" font-family="Times New Roman,serif" font-size="14.00">val = &#45;0.046</text>
<text text-anchor="middle" x="560.24" y="-157.8" font-family="Times New Roman,serif" font-size="14.00">val = &#45;0.048</text>
<text text-anchor="middle" x="560.24" y="-142.8" font-family="Times New Roman,serif" font-size="14.00">val = &#45;0.063</text>
<text text-anchor="middle" x="560.24" y="-127.8" font-family="Times New Roman,serif" font-size="14.00">val = &#45;0.061</text>
<text text-anchor="middle" x="560.24" y="-112.8" font-family="Times New Roman,serif" font-size="14.00">val = 0.025</text>
<text text-anchor="middle" x="560.24" y="-97.8" font-family="Times New Roman,serif" font-size="14.00">val = &#45;0.026</text>
<text text-anchor="middle" x="560.24" y="-82.8" font-family="Times New Roman,serif" font-size="14.00">val = &#45;0.062</text>
<text text-anchor="middle" x="560.24" y="-67.8" font-family="Times New Roman,serif" font-size="14.00">val = &#45;0.061</text>
<text text-anchor="middle" x="560.24" y="-52.8" font-family="Times New Roman,serif" font-size="14.00">val = 0.130</text>
<text text-anchor="middle" x="560.24" y="-37.8" font-family="Times New Roman,serif" font-size="14.00">val = &#45;0.013</text>
<text text-anchor="middle" x="560.24" y="-22.8" font-family="Times New Roman,serif" font-size="14.00">val = &#45;0.063</text>
<text text-anchor="middle" x="560.24" y="-7.8" font-family="Times New Roman,serif" font-size="14.00">val = 0.207</text>
</g>
<!-- 5&#45;&gt;12 -->
<g id="edge12" class="edge">
<title>5&#45;&gt;12</title>
<path fill="none" stroke="black" d="M514.33,-283.99C516.3,-278.29 518.44,-271.9 520.24,-266 522.52,-258.55 524.8,-250.87 527.05,-243.11"/>
<polygon fill="black" stroke="black" points="530.48,-243.82 529.88,-233.24 523.76,-241.89 530.48,-243.82"/>
<text text-anchor="middle" x="534.24" y="-254.8" font-family="Times New Roman,serif" font-size="14.00">Yes</text>
</g>
<!-- 13 -->
<g id="node14" class="node">
<title>13</title>
<polygon fill="none" stroke="red" points="700.74,-233 621.74,-233 621.74,0 700.74,0 700.74,-233"/>
<text text-anchor="middle" x="661.24" y="-217.8" font-family="Times New Roman,serif" font-size="14.00">val = 0.000</text>
<text text-anchor="middle" x="661.24" y="-202.8" font-family="Times New Roman,serif" font-size="14.00">val = 0.000</text>
<text text-anchor="middle" x="661.24" y="-187.8" font-family="Times New Roman,serif" font-size="14.00">val = 0.000</text>
<text text-anchor="middle" x="661.24" y="-172.8" font-family="Times New Roman,serif" font-size="14.00">val = 0.000</text>
<text text-anchor="middle" x="661.24" y="-157.8" font-family="Times New Roman,serif" font-size="14.00">val = 0.000</text>
<text text-anchor="middle" x="661.24" y="-142.8" font-family="Times New Roman,serif" font-size="14.00">val = 0.000</text>
<text text-anchor="middle" x="661.24" y="-127.8" font-family="Times New Roman,serif" font-size="14.00">val = 0.000</text>
<text text-anchor="middle" x="661.24" y="-112.8" font-family="Times New Roman,serif" font-size="14.00">val = 0.000</text>
<text text-anchor="middle" x="661.24" y="-97.8" font-family="Times New Roman,serif" font-size="14.00">val = 0.000</text>
<text text-anchor="middle" x="661.24" y="-82.8" font-family="Times New Roman,serif" font-size="14.00">val = 0.000</text>
<text text-anchor="middle" x="661.24" y="-67.8" font-family="Times New Roman,serif" font-size="14.00">val = 0.000</text>
<text text-anchor="middle" x="661.24" y="-52.8" font-family="Times New Roman,serif" font-size="14.00">val = 0.000</text>
<text text-anchor="middle" x="661.24" y="-37.8" font-family="Times New Roman,serif" font-size="14.00">val = 0.000</text>
<text text-anchor="middle" x="661.24" y="-22.8" font-family="Times New Roman,serif" font-size="14.00">val = 0.000</text>
<text text-anchor="middle" x="661.24" y="-7.8" font-family="Times New Roman,serif" font-size="14.00">val = 0.000</text>
</g>
<!-- 6&#45;&gt;13 -->
<g id="edge13" class="edge">
<title>6&#45;&gt;13</title>
<path fill="none" stroke="black" d="M706.83,-283.71C704.57,-278.11 702.17,-271.84 700.24,-266 697.75,-258.44 695.31,-250.63 692.94,-242.72"/>
<polygon fill="black" stroke="black" points="696.27,-241.64 690.08,-233.03 689.55,-243.61 696.27,-241.64"/>
<text text-anchor="middle" x="709.24" y="-254.8" font-family="Times New Roman,serif" font-size="14.00">No</text>
</g>
<!-- 14 -->
<g id="node15" class="node">
<title>14</title>
<polygon fill="none" stroke="red" points="801.74,-233 718.74,-233 718.74,0 801.74,0 801.74,-233"/>
<text text-anchor="middle" x="760.24" y="-217.8" font-family="Times New Roman,serif" font-size="14.00">val = 0.050</text>
<text text-anchor="middle" x="760.24" y="-202.8" font-family="Times New Roman,serif" font-size="14.00">val = 0.072</text>
<text text-anchor="middle" x="760.24" y="-187.8" font-family="Times New Roman,serif" font-size="14.00">val = 0.089</text>
<text text-anchor="middle" x="760.24" y="-172.8" font-family="Times New Roman,serif" font-size="14.00">val = &#45;0.062</text>
<text text-anchor="middle" x="760.24" y="-157.8" font-family="Times New Roman,serif" font-size="14.00">val = 0.055</text>
<text text-anchor="middle" x="760.24" y="-142.8" font-family="Times New Roman,serif" font-size="14.00">val = &#45;0.063</text>
<text text-anchor="middle" x="760.24" y="-127.8" font-family="Times New Roman,serif" font-size="14.00">val = 0.056</text>
<text text-anchor="middle" x="760.24" y="-112.8" font-family="Times New Roman,serif" font-size="14.00">val = &#45;0.022</text>
<text text-anchor="middle" x="760.24" y="-97.8" font-family="Times New Roman,serif" font-size="14.00">val = &#45;0.060</text>
<text text-anchor="middle" x="760.24" y="-82.8" font-family="Times New Roman,serif" font-size="14.00">val = &#45;0.027</text>
<text text-anchor="middle" x="760.24" y="-67.8" font-family="Times New Roman,serif" font-size="14.00">val = 0.061</text>
<text text-anchor="middle" x="760.24" y="-52.8" font-family="Times New Roman,serif" font-size="14.00">val = &#45;0.012</text>
<text text-anchor="middle" x="760.24" y="-37.8" font-family="Times New Roman,serif" font-size="14.00">val = &#45;0.057</text>
<text text-anchor="middle" x="760.24" y="-22.8" font-family="Times New Roman,serif" font-size="14.00">val = &#45;0.023</text>
<text text-anchor="middle" x="760.24" y="-7.8" font-family="Times New Roman,serif" font-size="14.00">val = &#45;0.056</text>
</g>
<!-- 6&#45;&gt;14 -->
<g id="edge14" class="edge">
<title>6&#45;&gt;14</title>
<path fill="none" stroke="black" d="M718.57,-283.74C721.18,-273.32 724.77,-259.01 728.75,-243.12"/>
<polygon fill="black" stroke="black" points="732.24,-243.59 731.28,-233.04 725.45,-241.89 732.24,-243.59"/>
<text text-anchor="middle" x="737.24" y="-254.8" font-family="Times New Roman,serif" font-size="14.00">Yes</text>
</g>
</g>
</svg>
